<?xml version="1.0" encoding="UTF-8" standalone="no"?><!DOCTYPE svg PUBLIC "-//W3C//DTD SVG 1.1//EN" "http://www.w3.org/Graphics/SVG/1.1/DTD/svg11.dtd"><svg width="100%" height="100%" viewBox="0 0 1806 2998" version="1.1" xmlns="http://www.w3.org/2000/svg" xmlns:xlink="http://www.w3.org/1999/xlink" xml:space="preserve" xmlns:serif="http://www.serif.com/" style="fill-rule:evenodd;clip-rule:evenodd;stroke-linecap:round;stroke-miterlimit:10;"><g id="Layer-1" serif:id="Layer 1"><path d="M357.434,2936.39l-30.69,-0l-0,26.772l30.078,-0c12.762,-0 19.559,-4.935 19.559,-13.385c0,-9.481 -7.2,-13.387 -18.947,-13.387m-8.24,-50.885l-22.45,0l-0,20.807l23.894,-0c11.328,-0 16.068,-4.125 16.068,-10.922c0,-7.828 -6.603,-9.885 -17.512,-9.885m2.056,108.763l-61.991,-0l0,-139.453l56.432,-0c40.378,-0 59.322,11.328 59.322,35.234c-0,10.691 -6.797,24.297 -24.504,28.425c17.707,1.431 34.61,14.206 34.61,32.735c-0,33.79 -26.578,43.059 -63.869,43.059" style="fill:#c51d23;fill-rule:nonzero;"/><path d="M516.716,2997.58c-42.019,0 -67.357,-18.347 -67.357,-59.334l0,-83.413l37.904,0l-0,87.122c-0,17.71 12.565,25.131 30.481,25.131c19.987,0 30.897,-7.421 30.897,-24.725l-0,-87.528l37.293,0l0,84.038c0,37.903 -25.95,58.709 -69.218,58.709" style="fill:#c51d23;fill-rule:nonzero;"/><path d="M681.809,2885.74l-14.621,-0.001l-0,77.447l14.206,0c30.69,0 48.828,-5.572 48.828,-39.75c-0,-28.231 -15.872,-37.697 -48.413,-37.697m1.029,108.557l-53.554,-0l0,-139.453l56.029,-0c57.462,-0 84.243,25.531 84.243,67.968c0,47.382 -27.812,71.485 -86.718,71.485" style="fill:#c51d23;fill-rule:nonzero;"/><path d="M884.372,2938.46l-17.931,-48.828l-0.613,0l-17.303,48.828l35.847,0Zm11.328,30.897l-58.294,0l-8.856,24.922l-37.694,-0l54.791,-139.453l43.881,-0l54.778,139.453l-39.544,-0l-9.062,-24.922Z" style="fill:#c51d23;fill-rule:nonzero;"/><path d="M1025.56,2886.14l-12.553,-0l0,35.637l13.178,0c18.541,0 28.229,-6.184 28.229,-18.75c-0,-13.19 -12.16,-16.887 -28.854,-16.887m1.041,66.731l-13.594,0l0,41.406l-37.915,0l-0,-139.44l51.509,-0c38.934,-0 67.138,11.731 67.138,46.55c-0,32.331 -23.882,51.484 -67.138,51.484" style="fill:#c51d23;fill-rule:nonzero;"/><path d="M1123.06,2854.83l105.054,0l-0,31.51l-67.135,-0l0,20.793l58.488,0l-0,31.538l-58.488,-0l0,24.1l68.175,-0l0,31.509l-106.094,0l0,-139.453l0,0.003Z" style="fill:#c51d23;fill-rule:nonzero;"/><path d="M1364.34,2889.83c-12.15,-4.322 -28.022,-8.228 -40.575,-8.228c-12.369,0 -21.628,2.878 -21.628,10.288c-0,21.834 69.831,12.159 69.831,60.156c-0,32.759 -30.078,45.531 -62.213,45.531c-16.068,0 -32.137,-3.097 -45.522,-8.241l0,-33.165c12.15,6.381 30.469,11.122 45.107,11.122c14.218,-0 24.515,-3.294 24.515,-11.953c0,-23.478 -69.622,-12.775 -69.622,-60.757c0,-32.147 28.216,-43.268 56.838,-43.268c16.287,-0 30.909,2.475 43.266,6.393l-0,32.122l0.003,0Z" style="fill:#c51d23;fill-rule:nonzero;"/><path d="M1476.87,2994.27l-37.916,-0l0,-107.944l-46.55,-0l0,-31.509l131.016,-0l-0,31.509l-46.55,-0l-0,107.944Z" style="fill:#c51d23;fill-rule:nonzero;"/><path d="M658.559,1458.05l197.554,0c0.493,0 0.74,-0.612 0.39,-0.966l-197.54,-197.55c-0.366,-0.353 -0.963,-0.106 -0.963,0.404l0,197.553c0,0.312 0.247,0.559 0.559,0.559" style="fill:#1b306c;fill-rule:nonzero;"/><path d="M851.122,1502.74l-237.825,-0l-0,-469.129l245.037,0c123.035,0 224.235,95.21 233.816,215.807c11.056,139.05 -101.522,253.322 -241.028,253.322m216.978,-537.475c90.341,-62.76 152.084,-163.569 158.309,-280.313c4.088,-76.875 -15.653,-148.931 -52.318,-209.688c-0.182,-0.324 -0.638,-0.378 -0.897,-0.115l-98.516,98.578c-0.156,0.156 -0.209,0.391 -0.119,0.6c14.65,34.778 21.263,73.75 17.122,114.65c-12.2,120.831 -118.162,210.597 -239.609,210.597l-238.775,-0l-0,-469.113l245.037,0c13.635,0 26.969,1.235 39.975,3.475c0.169,0.041 0.354,-0.012 0.469,-0.143l106.056,-106.054c0.285,-0.287 0.194,-0.781 -0.184,-0.937c-44.881,-19.494 -94.347,-30.378 -146.316,-30.378l-378.515,-0c-0.313,-0 -0.56,0.247 -0.56,0.559l0,1339.23c0,0.313 0.263,0.56 0.575,0.56l370.116,-0c200.872,-0 371.147,-157.172 376.838,-357.953c3.671,-129.716 -60.066,-245.053 -158.688,-313.557" style="fill:#c51d23;fill-rule:nonzero;"/><path d="M858.341,1078.27l-63.388,-0c-0.494,-0 -0.753,0.609 -0.39,0.962l245.156,245.169c-0,-0.025 0.012,-0.037 0.012,-0.053c1.641,-5.259 2.969,-10.638 4.156,-16.078c0.363,-1.707 0.651,-3.425 0.975,-5.132c0.769,-4.075 1.394,-8.215 1.9,-12.384c0.197,-1.719 0.432,-3.437 0.588,-5.169c0.522,-5.74 0.884,-11.55 0.884,-17.434c0,-104.7 -85.193,-189.881 -189.893,-189.881" style="fill:#1b306c;fill-rule:nonzero;"/><path d="M1206.5,441.991c-0.181,0.184 -0.222,0.468 -0.078,0.69c41.184,64.244 65.181,140.522 65.181,222.332c0,118.671 -50.337,225.74 -130.703,301.184c-0.234,0.222 -0.234,0.572 -0,0.794c80.366,75.443 130.703,182.512 130.703,301.172c0,9.181 -0.403,18.243 -0.987,27.265c-0.157,2.319 -0.341,4.638 -0.535,6.941c-0.665,7.994 -1.512,15.937 -2.631,23.815c-0.144,1.004 -0.235,2.019 -0.378,3.022c-1.353,9.047 -3.035,17.982 -4.96,26.822c-0.312,1.46 -0.665,2.891 -1.003,4.35c-1.862,8.15 -3.959,16.222 -6.303,24.191c-0.222,0.756 -0.416,1.525 -0.65,2.278c-5.494,18.297 -12.253,36.044 -20.119,53.178c-0.115,0.247 -0.218,0.494 -0.337,0.728c-7.969,17.266 -17.097,33.881 -27.278,49.753c-0.132,0.222 -0.103,0.51 0.078,0.691l144.362,144.362c0.35,0.35 0.963,0.104 0.963,-0.403l-0,-1337.12c-0,-0.509 -0.613,-0.756 -0.963,-0.406l-144.362,144.363Z" style="fill:#1b306c;fill-rule:nonzero;"/><path d="M729.372,1078.27l-70.822,-0c-0.312,-0 -0.559,0.247 -0.559,0.559l-0,117.135c-0,0.156 0.053,0.3 0.156,0.403l253.594,253.593c0.156,0.144 0.378,0.21 0.587,0.144c44.791,-13.319 82.603,-42.759 106.9,-81.575c0.144,-0.222 0.119,-0.522 -0.078,-0.715l-289.375,-289.375c-0.103,-0.107 -0.247,-0.169 -0.403,-0.169" style="fill:#1b306c;fill-rule:nonzero;"/><path d="M658.559,475.125l197.554,0c0.493,0 0.74,0.613 0.39,0.963l-197.54,197.553c-0.366,0.35 -0.963,0.103 -0.963,-0.404l0,-197.553c0,-0.312 0.247,-0.559 0.559,-0.559" style="fill:#1b306c;fill-rule:nonzero;"/><path d="M794.966,854.9l57.668,0c100.522,0 187.891,-75.716 195.107,-175.962c1.731,-24.207 -1.107,-47.541 -7.735,-69.247c-0.118,-0.404 -0.653,-0.532 -0.965,-0.235l-244.478,244.481c-0.35,0.35 -0.104,0.963 0.403,0.963" style="fill:#1b306c;fill-rule:nonzero;"/><path d="M1286.72,296.422l-187.957,-0c-0.156,-0 -0.3,0.05 -0.403,0.169l-356.693,356.693c-0.197,0.194 -0.157,0.507 -0,0.728l-79.232,79.232c-0.106,0.103 -0.168,0.247 -0.168,0.403l-0,117.137c-0,0.313 0.259,0.56 0.559,0.56l70.831,-0c0.144,-0 0.288,-0.066 0.391,-0.169l289.375,-289.375c0.197,-0.197 0.234,-0.497 0.093,-0.719c-0.015,-0.025 -0.028,-0.037 -0.04,-0.05l263.647,-263.647c0.35,-0.35 0.103,-0.962 -0.403,-0.962" style="fill:#1b306c;fill-rule:nonzero;"/><path d="M1178.97,1528.52c-28.1,34.528 -61.654,64.412 -99.338,88.409c-0.3,0.181 -0.35,0.6 -0.09,0.847l18.815,18.816c0.103,0.103 0.247,0.168 0.391,0.168l187.956,0c0.506,0 0.753,-0.612 0.403,-0.962l-107.319,-107.319c-0.234,-0.234 -0.612,-0.222 -0.818,0.041" style="fill:#1b306c;fill-rule:nonzero;"/><path d="M207.559,634.416c-9.65,291.028 11.547,994.506 15.519,1117.03c0.703,21.509 -16.534,39.231 -38.059,39.231l-36.316,0c-21.522,0 -38.762,-17.722 -38.059,-39.231c3.984,-123.15 25.9,-835.103 16.003,-1120.74" style="fill:#231f20;fill-rule:nonzero;"/><path d="M247.403,671.813c11.25,8.553 11.25,25.378 0,33.931c-18.125,13.775 -47.303,30.937 -80.222,30.937c-32.915,0 -62.093,-17.162 -80.218,-30.937c-11.266,-8.553 -11.266,-25.378 -0,-33.932c18.125,-13.778 47.303,-30.937 80.218,-30.937c32.919,0 62.097,17.159 80.222,30.938" style="fill:#231f20;fill-rule:nonzero;"/><path d="M126.653,630.7c-0.587,-16.859 -11.25,-31.719 -27.019,-37.706c-71.953,-27.253 -99.634,-87.578 -99.634,-263.725c0,-78.269 5.572,-197.994 33.853,-291.797c0.822,-2.681 3.306,-4.478 6.106,-4.478l11.225,-0c3.475,-0 6.288,2.812 6.288,6.287l-0,412.825c-0,11.772 9.547,21.316 21.303,21.316l1.394,-0c11.772,-0 21.303,-9.544 21.303,-21.316l-0,-412.825c-0,-3.475 2.812,-6.287 6.287,-6.287l31.119,-0c3.478,-0 6.291,2.812 6.291,6.287l-0,412.825c-0,11.772 9.544,21.316 21.315,21.316l1.379,-0c11.771,-0 21.315,-9.544 21.315,-21.316l0,-412.825c0,-3.475 2.813,-6.287 6.291,-6.287l31.106,-0c3.475,-0 6.303,2.812 6.303,6.287l0,412.825c0,11.772 9.531,21.316 21.3,21.316l1.394,-0c11.759,-0 21.303,-9.544 21.303,-21.316l-0,-412.825c-0,-3.475 2.813,-6.287 6.287,-6.287l11.225,-0c2.8,-0 5.288,1.797 6.094,4.478c28.294,93.803 33.866,213.528 33.866,291.797c-0,184.025 -26.835,234.115 -96.366,262.447c-17.681,7.203 -29.778,23.621 -30.415,42.696" style="fill:#231f20;fill-rule:nonzero;"/><path d="M119.309,685.306c9.079,-6.093 25.029,-13.659 48.31,-13.659c24.075,-0 38.931,4.05 46.769,7.137" style="fill:none;fill-rule:nonzero;stroke:#fff;stroke-width:20.97px;"/><path d="M150.091,1660.61l2.447,70.284c-0.351,2.122 -0.013,4.716 1.693,7.006c6.238,6.756 16.76,6.731 26.76,6.731c5.896,-0.337 10.921,4.31 11.065,10.21c0.197,6.093 -4.987,11.106 -11.065,10.753c-19.885,0.444 -50.3,-10.235 -45.732,-36.431c-0.596,8.54 2.422,-70.194 2.266,-68.557c0.287,-7.903 12.278,-7.94 12.566,0.004" style="fill:#fff;fill-rule:nonzero;"/><path d="M1622.18,1023.96c0,144.013 -12.187,620.431 -15.662,727.5c-0.691,21.5 16.55,39.235 38.059,39.235l36.328,-0c21.51,-0 38.75,-17.735 38.06,-39.235c-0.456,-13.75 -20.728,-300.062 -24.322,-727.472c-0.078,-10.246 20.781,-20.534 20.716,-30.834c-2.044,-349.322 10.39,-727.409 14.556,-928.841c0.509,-24.231 -2.772,-64.309 -27.003,-64.309c-67.228,-0 -161.513,214.634 -161.513,581.275c0,546.003 80.781,353.528 80.781,442.681" style="fill:#231f20;fill-rule:nonzero;"/><path d="M1573.28,999.925c-11.25,8.556 -11.25,25.378 0,33.934c18.125,13.775 47.306,30.938 80.222,30.938c32.919,-0 62.097,-17.163 80.222,-30.938c11.262,-8.556 11.262,-25.378 -0,-33.934c-18.125,-13.775 -47.303,-30.937 -80.222,-30.937c-32.916,-0 -62.097,17.162 -80.222,30.937" style="fill:#231f20;fill-rule:nonzero;"/><path d="M1673.15,77.484c-94.128,175.169 -97.697,524.335 -77.15,722.707c1.303,13.4 -19.14,16.121 -20.844,2.203c-18.687,-201.472 -11.328,-554.391 86.654,-731.447c4.218,-7.122 15.625,-1.119 11.34,6.537" style="fill:#fff;fill-rule:nonzero;"/><path d="M1605.18,1013.11c9.075,-6.093 25.025,-13.659 48.307,-13.659c24.075,0 38.931,4.05 46.772,7.138" style="fill:none;fill-rule:nonzero;stroke:#fff;stroke-width:20.97px;"/><path d="M1641.81,1660.61l2.125,70.284c-0.34,2.097 -0.078,4.597 1.6,6.903c6.16,6.769 16.654,6.781 26.629,6.834c5.896,-0.3 10.912,4.35 11.028,10.26c0.143,6.056 -4.988,11.031 -11.028,10.703c-19.975,0.547 -50.494,-10.156 -45.95,-36.485c-0.6,8.791 2.096,-70.234 1.94,-68.5c0.272,-8.646 13.372,-8.671 13.656,0" style="fill:#fff;fill-rule:nonzero;"/><g><g><g transform="matrix(0.999989,0,0,1,0.00318731,0)"><text x="289.755px" y="2308.15px" style="font-family:'LucidaGrande', 'Lucida Grande', sans-serif;font-weight:500;font-size:479.61px;fill:#231f20;">B</text></g></g><g><g><g transform="matrix(0.999989,0,0,1,0.00711251,0)"><text x="646.591px" y="2308.15px" style="font-family:'LucidaGrande', 'Lucida Grande', sans-serif;font-weight:500;font-size:479.61px;fill:#231f20;">o</text></g><g transform="matrix(0.999989,0,0,1,0.0102014,0)"><text x="927.396px" y="2308.15px" style="font-family:'LucidaGrande', 'Lucida Grande', sans-serif;font-weight:500;font-size:479.61px;fill:#231f20;">b’s</text></g></g></g><g><g><g transform="matrix(0.999989,0,0,1,-0.000373658,0)"><text x="-33.969px" y="2743.64px" style="font-family:'LucidaGrande', 'Lucida Grande', sans-serif;font-weight:500;font-size:479.61px;fill:#231f20;">K</text></g><g transform="matrix(0.999989,0,0,1,0.00340197,0)"><text x="309.27px" y="2743.64px" style="font-family:'LucidaGrande', 'Lucida Grande', sans-serif;font-weight:500;font-size:479.61px;fill:#231f20;">itchen</text></g></g></g></g></g></svg>